<?xml version="1.0" encoding="UTF-8"?>
<!DOCTYPE svg PUBLIC "-//W3C//DTD SVG 1.1//EN" "http://www.w3.org/Graphics/SVG/1.1/DTD/svg11.dtd">
<!-- Creator: CorelDRAW 2021 (64 Bit) -->
<svg xmlns="http://www.w3.org/2000/svg" xml:space="preserve" width="43.3493mm" height="43.3493mm" version="1.1" style="shape-rendering:geometricPrecision; text-rendering:geometricPrecision; image-rendering:optimizeQuality; fill-rule:evenodd; clip-rule:evenodd"
viewBox="0 0 214.08 214.08"
 xmlns:xlink="http://www.w3.org/1999/xlink"
 xmlns:xodm="http://www.corel.com/coreldraw/odm/2003">
 <defs>
  <style type="text/css">
   <![CDATA[
    .fil0 {fill:#3161A3}
    .fil1 {fill:#FEFEFE;fill-rule:nonzero}
   ]]>
  </style>
 </defs>
 <g id="Camada_x0020_1">
  <metadata id="CorelCorpID_0Corel-Layer"/>
  <circle class="fil0" cx="107.04" cy="107.04" r="107.04"/>
  <path class="fil1" d="M173.17 97.86l0 3.67c0,3.04 -2.47,5.51 -5.51,5.51l-1.84 0 -6 41.97c-0.78,5.43 -5.43,9.46 -10.91,9.46l-83.74 0c-5.48,0 -10.13,-4.03 -10.91,-9.46l-5.99 -41.97 -1.84 0c-3.04,0 -5.51,-2.47 -5.51,-5.51l0 -3.67c0,-3.04 2.47,-5.51 5.51,-5.51l15.46 0 24.52 -33.71c2.39,-3.28 6.98,-4.01 10.26,-1.62 3.28,2.39 4.01,6.98 1.62,10.26l-18.23 25.07 53.97 0 -18.23 -25.07c-2.39,-3.28 -1.66,-7.88 1.62,-10.26 3.28,-2.39 7.88,-1.66 10.26,1.62l24.52 33.71 15.46 0c3.04,0 5.51,2.47 5.51,5.51zm-60.61 40.41l0 -25.72c0,-3.04 -2.47,-5.51 -5.51,-5.51 -3.04,0 -5.51,2.47 -5.51,5.51l0 25.72c0,3.04 2.47,5.51 5.51,5.51 3.04,0 5.51,-2.47 5.51,-5.51zm25.71 0l0 -25.72c0,-3.04 -2.47,-5.51 -5.51,-5.51 -3.04,0 -5.51,2.47 -5.51,5.51l0 25.72c0,3.04 2.47,5.51 5.51,5.51 3.04,0 5.51,-2.47 5.51,-5.51zm-51.43 0l0 -25.72c0,-3.04 -2.47,-5.51 -5.51,-5.51 -3.04,0 -5.51,2.47 -5.51,5.51l0 25.72c0,3.04 2.47,5.51 5.51,5.51 3.04,0 5.51,-2.47 5.51,-5.51z"/>
 </g>
</svg>
