<?xml version="1.0" encoding="UTF-8"?>
<!DOCTYPE svg PUBLIC "-//W3C//DTD SVG 1.1//EN" "http://www.w3.org/Graphics/SVG/1.1/DTD/svg11.dtd">
<!-- Creator: CorelDRAW 2021 (64 Bit) -->
<svg xmlns="http://www.w3.org/2000/svg" xml:space="preserve" width="11.2598mm" height="11.2598mm" version="1.1" style="shape-rendering:geometricPrecision; text-rendering:geometricPrecision; image-rendering:optimizeQuality; fill-rule:evenodd; clip-rule:evenodd"
viewBox="0 0 31.7 31.7"
 xmlns:xlink="http://www.w3.org/1999/xlink"
 xmlns:xodm="http://www.corel.com/coreldraw/odm/2003">
 <defs>
  <style type="text/css">
   <![CDATA[
    .fil0 {fill:#181C32}
    .fil1 {fill:#FEFEFE;fill-rule:nonzero}
   ]]>
  </style>
 </defs>
 <g id="Camada_x0020_1">
  <metadata id="CorelCorpID_0Corel-Layer"/>
  <circle class="fil0" cx="15.85" cy="15.85" r="15.85"/>
  <g id="_1576444564256">
   <path class="fil1" d="M24.88 16.15c-0.01,-0.46 -0.21,-0.89 -0.54,-1.2l-6.76 -6.59c-0.2,-0.2 -0.48,-0.32 -0.77,-0.32 -0,0 -0,0 -0,0l-1.21 0 7.93 7.74 0 0c0.12,0.11 0.18,0.26 0.18,0.42 0,0.15 -0.05,0.29 -0.15,0.39l-5.7 6.31 0.8 0.78 5.76 -6.31c0.29,-0.32 0.46,-0.74 0.46,-1.18 0,-0.02 -0,-0.04 -0,-0.06l0 -0z"/>
   <path class="fil1" d="M21.78 16.56c0.03,-0.1 0.05,-0.2 0.05,-0.3 0,-0.22 -0.09,-0.44 -0.24,-0.6 -0,-0 -0.01,-0.01 -0.01,-0.01l-7.18 -7.3 -0 -0c-0.22,-0.22 -0.51,-0.34 -0.82,-0.34 -0,0 -0,0 -0,0l-5.15 0c-0.89,0 -1.61,0.72 -1.61,1.61l0 5.14c0,0.32 0.13,0.63 0.37,0.85l7.66 7.29 0 0c0.16,0.15 0.37,0.24 0.6,0.24 0,0 0,0 0,0 0.01,0 0.02,-0 0.03,-0 0.08,-0 0.17,-0.02 0.25,-0.04 0.14,-0.05 0.27,-0.13 0.37,-0.24l5.52 -6c0.08,-0.09 0.14,-0.19 0.18,-0.29l0 0zm-6.35 5.28l-7.45 -7.09 -0 -0 0 -5.14c0,-0.25 0.2,-0.44 0.44,-0.44l5.15 0 6.98 7.1 -5.13 5.57z"/>
   <path class="fil1" d="M11.33 10.67c-0.85,0 -1.55,0.69 -1.55,1.55 0,0.85 0.69,1.55 1.55,1.55 0.85,0 1.55,-0.69 1.55,-1.55 -0,-0.85 -0.69,-1.54 -1.55,-1.55l0 0z"/>
  </g>
 </g>
</svg>
