<?xml version="1.0" encoding="UTF-8"?>
<!DOCTYPE svg PUBLIC "-//W3C//DTD SVG 1.1//EN" "http://www.w3.org/Graphics/SVG/1.1/DTD/svg11.dtd">
<!-- Creator: CorelDRAW 2021 (64 Bit) -->
<svg xmlns="http://www.w3.org/2000/svg" xml:space="preserve" width="43.3493mm" height="43.3493mm" version="1.1" style="shape-rendering:geometricPrecision; text-rendering:geometricPrecision; image-rendering:optimizeQuality; fill-rule:evenodd; clip-rule:evenodd"
viewBox="0 0 191.47 191.47"
 xmlns:xlink="http://www.w3.org/1999/xlink"
 xmlns:xodm="http://www.corel.com/coreldraw/odm/2003">
 <defs>
  <style type="text/css">
   <![CDATA[
    .fil0 {fill:#774898}
    .fil1 {fill:#FEFEFE;fill-rule:nonzero}
   ]]>
  </style>
 </defs>
 <g id="Camada_x0020_1">
  <metadata id="CorelCorpID_0Corel-Layer"/>
  <circle class="fil0" cx="95.74" cy="95.74" r="95.74"/>
  <path class="fil1" d="M95.73 119.3l-35.34 0 0 -29.45 -11.78 0 0 47.12c0,3.26 2.63,5.89 5.89,5.89l47.12 0c3.26,0 5.89,-2.63 5.89,-5.89l0 -47.12 -11.78 0 0 29.45zm57.91 -44.51l-15.7 -23.56c-1.1,-1.64 -2.95,-2.61 -4.91,-2.61l-74.58 0c-1.97,0 -3.81,0.98 -4.9,2.61l-15.7 23.56c-2.61,3.92 0.18,9.17 4.9,9.17l106 0c4.69,0 7.49,-5.25 4.9,-9.17zm-22.57 65.12c0,1.62 1.33,2.94 2.95,2.94l5.89 0c1.62,0 2.94,-1.33 2.94,-2.94l0 -50.07 -11.78 0 0 50.07z"/>
 </g>
</svg>
