<?xml version="1.0" encoding="UTF-8"?>
<!DOCTYPE svg PUBLIC "-//W3C//DTD SVG 1.1//EN" "http://www.w3.org/Graphics/SVG/1.1/DTD/svg11.dtd">
<!-- Creator: CorelDRAW 2021 (64 Bit) -->
<svg xmlns="http://www.w3.org/2000/svg" xml:space="preserve" width="11.2598mm" height="11.2598mm" version="1.1" style="shape-rendering:geometricPrecision; text-rendering:geometricPrecision; image-rendering:optimizeQuality; fill-rule:evenodd; clip-rule:evenodd"
viewBox="0 0 28.67 28.67"
 xmlns:xlink="http://www.w3.org/1999/xlink"
 xmlns:xodm="http://www.corel.com/coreldraw/odm/2003">
 <defs>
  <style type="text/css">
   <![CDATA[
    .fil0 {fill:#FF1247}
    .fil1 {fill:#FEFEFE;fill-rule:nonzero}
   ]]>
  </style>
 </defs>
 <g id="Camada_x0020_1">
  <metadata id="CorelCorpID_0Corel-Layer"/>
  <circle class="fil0" cx="14.34" cy="14.34" r="14.34"/>
  <g id="_1576439374736">
   <g>
    <g>
     <g>
      <g>
       <g>
        <path class="fil1" d="M9.88 11.87c-0.1,0 -0.2,-0.04 -0.28,-0.11 -0.07,-0.07 -0.12,-0.17 -0.12,-0.28 0,-0.1 0.04,-0.2 0.12,-0.28 0.07,-0.07 0.17,-0.12 0.28,-0.12 0.1,0 0.2,0.04 0.28,0.12 0.07,0.07 0.12,0.17 0.12,0.28 0,0.1 -0.04,0.2 -0.12,0.28 -0.07,0.07 -0.17,0.11 -0.28,0.11z"/>
       </g>
       <g>
        <path class="fil1" d="M14.34 11.87c-0.1,0 -0.2,-0.04 -0.28,-0.11 -0.07,-0.07 -0.12,-0.17 -0.12,-0.28 0,-0.1 0.04,-0.2 0.12,-0.28 0.07,-0.07 0.17,-0.12 0.28,-0.12 0.1,0 0.2,0.04 0.28,0.12 0.07,0.07 0.11,0.17 0.11,0.28 0,0.1 -0.04,0.2 -0.11,0.28 -0.07,0.07 -0.17,0.11 -0.28,0.11z"/>
       </g>
       <g>
        <path class="fil1" d="M18.79 11.87c-0.1,0 -0.2,-0.04 -0.28,-0.11 -0.07,-0.07 -0.12,-0.17 -0.12,-0.28 0,-0.1 0.04,-0.2 0.12,-0.28 0.07,-0.07 0.17,-0.12 0.28,-0.12 0.1,0 0.2,0.04 0.28,0.12 0.07,0.07 0.12,0.17 0.12,0.28 0,0.1 -0.04,0.2 -0.12,0.28 -0.07,0.07 -0.17,0.11 -0.28,0.11z"/>
       </g>
      </g>
      <g>
       <g>
        <path class="fil1" d="M12.23 9.89c-0.1,0 -0.2,-0.04 -0.28,-0.11 -0.07,-0.07 -0.12,-0.17 -0.12,-0.28 0,-0.1 0.04,-0.2 0.12,-0.28 0.07,-0.07 0.17,-0.12 0.28,-0.12 0.1,0 0.2,0.04 0.28,0.12 0.07,0.07 0.12,0.17 0.12,0.28 0,0.1 -0.04,0.2 -0.12,0.28 -0.07,0.07 -0.17,0.11 -0.28,0.11z"/>
       </g>
       <g>
        <path class="fil1" d="M16.45 9.89c-0.1,0 -0.2,-0.04 -0.28,-0.11 -0.07,-0.07 -0.12,-0.17 -0.12,-0.28 0,-0.1 0.04,-0.2 0.12,-0.28 0.07,-0.07 0.17,-0.12 0.28,-0.12 0.1,0 0.2,0.04 0.28,0.12 0.07,0.07 0.12,0.17 0.12,0.28 0,0.1 -0.04,0.2 -0.12,0.28 -0.07,0.07 -0.17,0.11 -0.28,0.11z"/>
       </g>
      </g>
     </g>
     <path class="fil1" d="M22.02 18.2c0.14,-0.23 0.23,-0.5 0.23,-0.79 0,-0.52 -0.26,-0.98 -0.66,-1.25 0.27,-0.29 0.44,-0.69 0.44,-1.12 0,-0.38 -0.13,-0.73 -0.34,-1 0.76,-0.3 1.29,-1.04 1.29,-1.9 0,-1.47 -0.93,-2.83 -2.61,-3.84 -1.62,-0.97 -3.76,-1.51 -6.03,-1.51 -2.27,0 -4.42,0.53 -6.04,1.51 -1.68,1.01 -2.61,2.37 -2.61,3.84 0,0.86 0.54,1.6 1.29,1.9 -0.21,0.28 -0.34,0.63 -0.34,1 0,0.43 0.17,0.83 0.44,1.12 -0.4,0.27 -0.66,0.73 -0.66,1.25 0,0.29 0.08,0.56 0.23,0.79 -0.47,0.12 -0.96,0.44 -0.96,1.29 0,1.04 0.75,1.88 1.68,1.88l13.93 0c0.92,0 1.68,-0.84 1.68,-1.88 0,-0.85 -0.49,-1.17 -0.96,-1.29zm-14.59 -3.16c0,-0.47 0.39,-0.86 0.86,-0.86l12.09 0c0.47,0 0.86,0.39 0.86,0.86 0,0.09 -0.01,0.18 -0.04,0.26 -0.32,-0.04 -0.5,-0.18 -0.73,-0.35 -0.31,-0.23 -0.69,-0.52 -1.42,-0.52 -0.72,0 -1.11,0.29 -1.42,0.52 -0.27,0.2 -0.49,0.36 -0.95,0.36 -0.46,0 -0.67,-0.16 -0.95,-0.36 -0.31,-0.23 -0.69,-0.52 -1.42,-0.52 -0.72,0 -1.11,0.29 -1.42,0.52 -0.27,0.2 -0.49,0.36 -0.95,0.36 -0.46,0 -0.67,-0.16 -0.95,-0.36 -0.31,-0.23 -0.69,-0.52 -1.42,-0.52 -0.72,0 -1.11,0.29 -1.42,0.52 -0.22,0.17 -0.41,0.31 -0.73,0.35 -0.03,-0.08 -0.04,-0.17 -0.04,-0.26zm13.06 0.85c-0.04,0 -0.07,0.01 -0.11,0.01l-2.77 0c0.2,-0.1 0.36,-0.22 0.5,-0.32 0.27,-0.2 0.49,-0.36 0.95,-0.36 0.46,0 0.67,0.16 0.95,0.36 0.14,0.1 0.29,0.22 0.49,0.31zm-4.7 0.01l-2.9 0c0.2,-0.1 0.36,-0.22 0.5,-0.32 0.27,-0.2 0.49,-0.36 0.95,-0.36 0.46,0 0.67,0.16 0.95,0.36 0.14,0.11 0.3,0.23 0.5,0.32zm-4.72 0l-2.77 0c-0.04,0 -0.08,-0 -0.11,-0.01 0.19,-0.1 0.35,-0.21 0.49,-0.31 0.27,-0.2 0.49,-0.36 0.95,-0.36 0.46,0 0.67,0.16 0.95,0.36 0.14,0.11 0.3,0.23 0.5,0.32zm-3.13 0.79l12.81 0c0.4,0 0.72,0.32 0.72,0.72 0,0.4 -0.32,0.72 -0.72,0.72l-12.81 0c-0.4,0 -0.72,-0.32 -0.72,-0.72 0,-0.4 0.32,-0.72 0.72,-0.72zm-1.45 -4.55c0,-1.18 0.79,-2.3 2.23,-3.16 1.5,-0.9 3.5,-1.39 5.63,-1.39 2.13,0 4.13,0.5 5.63,1.39 1.44,0.86 2.23,1.98 2.23,3.16 0,0.69 -0.56,1.26 -1.26,1.26l-13.2 0c-0.69,0 -1.26,-0.56 -1.26,-1.26zm14.82 8.45l-13.93 0c-0.49,0 -0.89,-0.49 -0.89,-1.1 0,-0.35 0.06,-0.58 0.89,-0.58l13.93 0c0.83,0 0.89,0.23 0.89,0.58 0,0.61 -0.4,1.1 -0.89,1.1z"/>
    </g>
   </g>
   <g>
   </g>
   <g>
   </g>
   <g>
   </g>
   <g>
   </g>
   <g>
   </g>
   <g>
   </g>
   <g>
   </g>
   <g>
   </g>
   <g>
   </g>
   <g>
   </g>
   <g>
   </g>
   <g>
   </g>
   <g>
   </g>
   <g>
   </g>
   <g>
   </g>
  </g>
 </g>
</svg>
