<?xml version="1.0" encoding="UTF-8"?>
<!DOCTYPE svg PUBLIC "-//W3C//DTD SVG 1.1//EN" "http://www.w3.org/Graphics/SVG/1.1/DTD/svg11.dtd">
<!-- Creator: CorelDRAW 2021 (64 Bit) -->
<svg xmlns="http://www.w3.org/2000/svg" xml:space="preserve" width="11.2598mm" height="11.2598mm" version="1.1" style="shape-rendering:geometricPrecision; text-rendering:geometricPrecision; image-rendering:optimizeQuality; fill-rule:evenodd; clip-rule:evenodd"
viewBox="0 0 30.09 30.09"
 xmlns:xlink="http://www.w3.org/1999/xlink"
 xmlns:xodm="http://www.corel.com/coreldraw/odm/2003">
 <defs>
  <style type="text/css">
   <![CDATA[
    .fil0 {fill:#088E43}
    .fil1 {fill:#FEFEFE;fill-rule:nonzero}
   ]]>
  </style>
 </defs>
 <g id="Camada_x0020_1">
  <metadata id="CorelCorpID_0Corel-Layer"/>
  <circle class="fil0" cx="15.05" cy="15.05" r="15.05"/>
  <g id="_1576429741584">
   <g>
    <g>
     <path class="fil1" d="M19.05 15.79l-2.58 0c-0.71,0 -1.28,0.57 -1.28,1.28l0 1.98c0,0.71 0.58,1.28 1.28,1.28l2.58 0c0.71,0 1.28,-0.57 1.28,-1.28l0 -1.98c0,-0.71 -0.58,-1.28 -1.28,-1.28zm0.35 3.26c0,0.19 -0.16,0.35 -0.35,0.35l-2.58 0c-0.19,0 -0.35,-0.16 -0.35,-0.35l0 -1.98c0,-0.19 0.16,-0.35 0.35,-0.35l2.58 0c0.19,0 0.35,0.16 0.35,0.35l0 1.98z"/>
     <path class="fil1" d="M24.55 12.19c0,-0.08 -0.02,-0.16 -0.06,-0.23l-2.83 -4.97c-0.08,-0.14 -0.24,-0.24 -0.4,-0.24l-12.43 0c-0.17,0 -0.32,0.09 -0.4,0.24l-2.82 4.97c-0.04,0.07 -0.06,0.15 -0.06,0.23 0,1.11 0.67,2.07 1.63,2.49l0 8.2c0,0.26 0.21,0.47 0.47,0.47l2.58 0c0,0 0.01,0 0.01,0l3.61 0c0,0 0.01,0 0.01,0l8.6 0c0.26,0 0.47,-0.21 0.47,-0.47l0 -8.14c0,-0.02 0,-0.03 -0,-0.05 0.96,-0.42 1.64,-1.38 1.64,-2.5zm-15.45 -4.5l11.88 0 2.21 3.89 -16.3 0 2.21 -3.89zm9.97 4.82c-0.15,0.84 -0.88,1.48 -1.76,1.48 -0.88,0 -1.62,-0.64 -1.76,-1.48l3.53 0zm-4.52 0c-0.15,0.84 -0.88,1.48 -1.76,1.48 -0.88,0 -1.62,-0.64 -1.77,-1.48l3.53 0zm-8.05 0l3.53 0c-0.15,0.84 -0.89,1.48 -1.77,1.48 -0.88,0 -1.62,-0.64 -1.76,-1.48zm6.87 9.91l-2.68 0 0 -5.03c0,-0.37 0.3,-0.66 0.66,-0.66l1.36 0c0.37,0 0.66,0.3 0.66,0.66l0 5.03 -0 0zm8.61 0l-7.68 0 0 -5.03c0,-0.88 -0.71,-1.6 -1.6,-1.6l-1.36 0c-0.88,0 -1.6,0.71 -1.6,1.6l0 5.03 -1.65 0 0 -7.51c0.05,0 0.11,0 0.16,0 0.94,0 1.77,-0.48 2.26,-1.2 0.49,0.73 1.32,1.2 2.26,1.2 0.94,0 1.77,-0.48 2.26,-1.2 0.49,0.73 1.32,1.2 2.26,1.2 0.94,0 1.77,-0.48 2.26,-1.2 0.49,0.73 1.32,1.2 2.26,1.2 0.05,0 0.11,-0 0.16,-0l0 7.51 0 0zm-0.16 -8.43c-0.88,0 -1.62,-0.64 -1.76,-1.48l3.53 0c-0.15,0.84 -0.89,1.48 -1.77,1.48z"/>
    </g>
   </g>
   <g>
   </g>
   <g>
   </g>
   <g>
   </g>
   <g>
   </g>
   <g>
   </g>
   <g>
   </g>
   <g>
   </g>
   <g>
   </g>
   <g>
   </g>
   <g>
   </g>
   <g>
   </g>
   <g>
   </g>
   <g>
   </g>
   <g>
   </g>
   <g>
   </g>
  </g>
 </g>
</svg>
