<?xml version="1.0" encoding="UTF-8"?>
<!DOCTYPE svg PUBLIC "-//W3C//DTD SVG 1.1//EN" "http://www.w3.org/Graphics/SVG/1.1/DTD/svg11.dtd">
<!-- Creator: CorelDRAW 2021 (64 Bit) -->
<svg xmlns="http://www.w3.org/2000/svg" xml:space="preserve" width="43.3493mm" height="43.3493mm" version="1.1" style="shape-rendering:geometricPrecision; text-rendering:geometricPrecision; image-rendering:optimizeQuality; fill-rule:evenodd; clip-rule:evenodd"
viewBox="0 0 278.59 278.59"
 xmlns:xlink="http://www.w3.org/1999/xlink"
 xmlns:xodm="http://www.corel.com/coreldraw/odm/2003">
 <defs>
  <style type="text/css">
   <![CDATA[
    .fil1 {fill:#FEFEFE}
    .fil0 {fill:#F3A74C}
   ]]>
  </style>
 </defs>
 <g id="Camada_x0020_1">
  <metadata id="CorelCorpID_0Corel-Layer"/>
  <circle class="fil0" cx="139.3" cy="139.3" r="139.3"/>
  <path class="fil1" d="M143.16 151.56l8.05 0c0.74,0 0.97,0.22 0.97,0.97l0 8.05 -9.01 0 0 -9.01zm-28.33 -17.71l8.69 0 0 8.69 -8.69 0 0 -8.69zm-32.19 -16.42l9.01 0 0 8.69 -9.01 0 0 -8.69zm59.56 -8.05l9.01 0 0 9.01 -9.01 0 0 -9.01zm-34.12 -10.3l8.69 0 0 8.69 -8.69 0 0 -8.69zm-51.19 18.03c0,7.25 1.36,10.11 5.34,15.91 1,1.45 3.15,3.53 4.4,4.62 0.97,0.85 1.22,1.31 2.36,2.15 0.79,0.59 2.4,1.44 2.4,2.43l0 75.33 100.44 0 0 -75.33c0,-0.97 3.09,-2.99 4.74,-4.59 6.28,-6.06 9.74,-10.92 9.74,-20.52 0,-4.17 -2.45,-9.94 -4.92,-13.1 -4.61,-5.9 -10.13,-10.03 -16.86,-13.4 -10.96,-5.48 -26.27,-9.23 -39.38,-9.23 -12.85,0 -26.18,0.9 -37.67,5.47 -1.47,0.59 -2.9,1.02 -4.4,1.72 -4.28,1.99 -11.57,5.99 -15.14,9.01 -5.55,4.69 -11.04,11.9 -11.04,19.54z"/>
  <path class="fil1" d="M103.56 72.37c2.52,0 5.77,-0.83 8.37,-0.97 22.9,-1.19 39.63,1.34 59.13,11.05l4.61 2.79c0.81,0.54 1.51,0.89 2.35,1.51 0.84,0.62 1.39,1.13 2.15,1.71 16.74,12.79 22.38,32.72 8.79,50.96 -1.82,2.44 -6.69,7.05 -6.78,7.39l-0.08 71.07c1.61,-0.38 10.76,-5.13 12.49,-6.18 3.81,-2.32 8.61,-4.26 12.62,-6.38l0 -71.79c-0,-6.57 -0.93,-3.43 5.07,-9.42 4.84,-4.82 9.42,-12.57 9.42,-19.56 0,-7.97 -1.57,-13.75 -6.54,-19.86 -5.51,-6.77 -12.96,-12.27 -21.1,-15.6 -1.5,-0.62 -3.05,-1.42 -4.75,-2.01 -7.94,-2.76 -12.44,-3.99 -21.15,-5.25 -10.37,-1.5 -22.59,-1.5 -32.97,0 -5.68,0.82 -11.65,2.09 -17.04,3.89 -3.06,1.02 -13.31,4.87 -14.61,6.64z"/>
 </g>
</svg>
